999
DXFighter
0
SECTION
2
HEADER
9
$ACADVER
1
AC1012
9
$DWGCODEPAGE
3
ANSI_1252
9
$INSBASE
10
0.000
20
0.000
30
0.000
9
$EXTMIN
10
0.000
20
0.000
30
0.000
9
$EXTMAX
10
0.000
20
0.000
30
0.000
0
ENDSEC
0
SECTION
2
CLASSES
0
ENDSEC
0
SECTION
2
TABLES
0
TABLE
2
VPORT
5
6
330
0
100
AcDbSymbolTable
70
0
0
ENDTAB
0
TABLE
2
LTYPE
5
7
330
0
100
AcDbSymbolTable
70
2
0
LTYPE
5
19
100
AcDbSymbolTableRecord
100
AcDbLinetypeTableRecord
2
BYBLOCK
70
0
3

72
65
73
0
40
0
0
LTYPE
5
1A
100
AcDbSymbolTableRecord
100
AcDbLinetypeTableRecord
2
BYLAYER
70
0
3

72
65
73
0
40
0
0
ENDTAB
0
TABLE
2
LAYER
5
8
330
0
100
AcDbSymbolTable
70
1
0
LAYER
5
18
100
AcDbSymbolTableRecord
100
AcDbLayerTableRecord
2
0
70
0
62
0
6
CONTINUOUS
0
ENDTAB
0
TABLE
2
STYLE
5
9
330
0
100
AcDbSymbolTable
70
1
0
STYLE
5
1B
100
AcDbSymbolTableRecord
100
AcDbTextStyleTableRecord
2
STANDARD
70
0
6
CONTINUOUS
0
ENDTAB
0
TABLE
2
VIEW
5
A
330
0
100
AcDbSymbolTable
70
0
0
ENDTAB
0
TABLE
2
UCS
5
B
330
0
100
AcDbSymbolTable
70
0
0
ENDTAB
0
TABLE
2
APPID
5
C
330
0
100
AcDbSymbolTable
70
1
0
APPID
5
F
100
AcDbSymbolTableRecord
100
AcDbRegAppTableRecord
2
ACAD
70
0
0
ENDTAB
0
TABLE
2
DIMSTYLE
5
D
330
0
100
AcDbSymbolTable
70
0
0
ENDTAB
0
TABLE
2
BLOCK_RECORD
5
E
330
0
100
AcDbSymbolTable
70
2
0
BLOCK_RECORD
5
10
100
AcDbSymbolTableRecord
100
AcDbBlockTableRecord
2
*MODEL_SPACE
0
BLOCK_RECORD
5
14
100
AcDbSymbolTableRecord
100
AcDbBlockTableRecord
2
*PAPER_SPACE
0
ENDTAB
0
ENDSEC
0
SECTION
2
BLOCKS
0
BLOCK
5
12
330
11
100
AcDbEntity
67
0
8
0
6
BYLAYER
62
256
48
1
60
0
100
AcDbBlockBegin
2
*MODEL_SPACE
70
0
10
0.000
20
0.000
30
0.000
3
*MODEL_SPACE
1

0
ENDBLK
5
13
330
11
100
AcDbEntity
67
0
8
0
6
BYLAYER
62
256
48
1
60
0
100
AcDbBlockEnd
0
BLOCK
5
16
330
15
100
AcDbEntity
67
0
8
0
6
BYLAYER
62
256
48
1
60
0
100
AcDbBlockBegin
2
*PAPER_SPACE
70
0
10
0.000
20
0.000
30
0.000
3
*PAPER_SPACE
1

0
ENDBLK
5
17
330
15
100
AcDbEntity
67
0
8
0
6
BYLAYER
62
256
48
1
60
0
100
AcDbBlockEnd
0
ENDSEC
0
SECTION
2
ENTITIES
0
POLYLINE
5
1E
330
0
100
AcDbEntity
67
0
8
0
6
BYLAYER
62
256
48
1
60
0
100
AcDb2dPolyline
10
0.000
20
0.000
30
0.000
70
0
0
VERTEX
5
1F
330
1E
100
AcDbEntity
67
0
8
0
6
BYLAYER
62
256
48
1
60
0
100
AcDbVertex
100
AcDb2dVertex
10
0.000
20
18.000
42
0
70
0
0
VERTEX
5
20
330
1E
100
AcDbEntity
67
0
8
0
6
BYLAYER
62
256
48
1
60
0
100
AcDbVertex
100
AcDb2dVertex
10
18.000
20
18.000
42
0
70
0
0
VERTEX
5
21
330
1E
100
AcDbEntity
67
0
8
0
6
BYLAYER
62
256
48
1
60
0
100
AcDbVertex
100
AcDb2dVertex
10
18.000
20
0.000
42
0
70
0
0
VERTEX
5
22
330
1E
100
AcDbEntity
67
0
8
0
6
BYLAYER
62
256
48
1
60
0
100
AcDbVertex
100
AcDb2dVertex
10
21.000
20
0.000
42
0
70
0
0
VERTEX
5
23
330
1E
100
AcDbEntity
67
0
8
0
6
BYLAYER
62
256
48
1
60
0
100
AcDbVertex
100
AcDb2dVertex
10
21.000
20
18.000
42
0
70
0
0
VERTEX
5
24
330
1E
100
AcDbEntity
67
0
8
0
6
BYLAYER
62
256
48
1
60
0
100
AcDbVertex
100
AcDb2dVertex
10
39.000
20
18.000
42
0
70
0
0
VERTEX
5
25
330
1E
100
AcDbEntity
67
0
8
0
6
BYLAYER
62
256
48
1
60
0
100
AcDbVertex
100
AcDb2dVertex
10
39.000
20
22.000
42
0
70
0
0
VERTEX
5
26
330
1E
100
AcDbEntity
67
0
8
0
6
BYLAYER
62
256
48
1
60
0
100
AcDbVertex
100
AcDb2dVertex
10
41.000
20
22.000
42
0
70
0
0
VERTEX
5
27
330
1E
100
AcDbEntity
67
0
8
0
6
BYLAYER
62
256
48
1
60
0
100
AcDbVertex
100
AcDb2dVertex
10
41.000
20
40.000
42
0
70
0
0
VERTEX
5
28
330
1E
100
AcDbEntity
67
0
8
0
6
BYLAYER
62
256
48
1
60
0
100
AcDbVertex
100
AcDb2dVertex
10
36.000
20
40.000
42
0
70
0
0
VERTEX
5
29
330
1E
100
AcDbEntity
67
0
8
0
6
BYLAYER
62
256
48
1
60
0
100
AcDbVertex
100
AcDb2dVertex
10
36.000
20
41.000
42
0
70
0
0
VERTEX
5
2A
330
1E
100
AcDbEntity
67
0
8
0
6
BYLAYER
62
256
48
1
60
0
100
AcDbVertex
100
AcDb2dVertex
10
37.000
20
41.000
42
0
70
0
0
VERTEX
5
2B
330
1E
100
AcDbEntity
67
0
8
0
6
BYLAYER
62
256
48
1
60
0
100
AcDbVertex
100
AcDb2dVertex
10
37.000
20
43.000
42
0
70
0
0
VERTEX
5
2C
330
1E
100
AcDbEntity
67
0
8
0
6
BYLAYER
62
256
48
1
60
0
100
AcDbVertex
100
AcDb2dVertex
10
36.000
20
43.000
42
0
70
0
0
VERTEX
5
2D
330
1E
100
AcDbEntity
67
0
8
0
6
BYLAYER
62
256
48
1
60
0
100
AcDbVertex
100
AcDb2dVertex
10
36.000
20
22.000
42
0
70
0
0
VERTEX
5
2E
330
1E
100
AcDbEntity
67
0
8
0
6
BYLAYER
62
256
48
1
60
0
100
AcDbVertex
100
AcDb2dVertex
10
36.000
20
22.000
42
0
70
0
0
VERTEX
5
2F
330
1E
100
AcDbEntity
67
0
8
0
6
BYLAYER
62
256
48
1
60
0
100
AcDbVertex
100
AcDb2dVertex
10
36.000
20
40.000
42
0
70
0
0
VERTEX
5
30
330
1E
100
AcDbEntity
67
0
8
0
6
BYLAYER
62
256
48
1
60
0
100
AcDbVertex
100
AcDb2dVertex
10
36.000
20
22.000
42
0
70
0
0
VERTEX
5
31
330
1E
100
AcDbEntity
67
0
8
0
6
BYLAYER
62
256
48
1
60
0
100
AcDbVertex
100
AcDb2dVertex
10
18.000
20
22.000
42
0
70
0
0
VERTEX
5
32
330
1E
100
AcDbEntity
67
0
8
0
6
BYLAYER
62
256
48
1
60
0
100
AcDbVertex
100
AcDb2dVertex
10
18.000
20
24.000
42
0
70
0
0
VERTEX
5
33
330
1E
100
AcDbEntity
67
0
8
0
6
BYLAYER
62
256
48
1
60
0
100
AcDbVertex
100
AcDb2dVertex
10
17.000
20
24.000
42
0
70
0
0
VERTEX
5
34
330
1E
100
AcDbEntity
67
0
8
0
6
BYLAYER
62
256
48
1
60
0
100
AcDbVertex
100
AcDb2dVertex
10
0.000
20
24.000
42
0
70
0
0
VERTEX
5
35
330
1E
100
AcDbEntity
67
0
8
0
6
BYLAYER
62
256
48
1
60
0
100
AcDbVertex
100
AcDb2dVertex
10
0.000
20
18.000
42
0
70
0
0
SEQEND
5
C0
330
1E
100
AcDbEntity
67
0
8
0
6
BYLAYER
62
256
48
1
60
0
0
POLYLINE
5
36
330
0
100
AcDbEntity
67
0
8
0
6
BYLAYER
62
256
48
1
60
0
100
AcDb2dPolyline
10
0.000
20
0.000
30
0.000
70
0
0
VERTEX
5
37
330
36
100
AcDbEntity
67
0
8
0
6
BYLAYER
62
256
48
1
60
0
100
AcDbVertex
100
AcDb2dVertex
10
41.000
20
18.000
42
0
70
0
0
VERTEX
5
38
330
36
100
AcDbEntity
67
0
8
0
6
BYLAYER
62
256
48
1
60
0
100
AcDbVertex
100
AcDb2dVertex
10
59.000
20
18.000
42
0
70
0
0
VERTEX
5
39
330
36
100
AcDbEntity
67
0
8
0
6
BYLAYER
62
256
48
1
60
0
100
AcDbVertex
100
AcDb2dVertex
10
59.000
20
0.000
42
0
70
0
0
VERTEX
5
3A
330
36
100
AcDbEntity
67
0
8
0
6
BYLAYER
62
256
48
1
60
0
100
AcDbVertex
100
AcDb2dVertex
10
62.000
20
0.000
42
0
70
0
0
VERTEX
5
3B
330
36
100
AcDbEntity
67
0
8
0
6
BYLAYER
62
256
48
1
60
0
100
AcDbVertex
100
AcDb2dVertex
10
62.000
20
18.000
42
0
70
0
0
VERTEX
5
3C
330
36
100
AcDbEntity
67
0
8
0
6
BYLAYER
62
256
48
1
60
0
100
AcDbVertex
100
AcDb2dVertex
10
80.000
20
18.000
42
0
70
0
0
VERTEX
5
3D
330
36
100
AcDbEntity
67
0
8
0
6
BYLAYER
62
256
48
1
60
0
100
AcDbVertex
100
AcDb2dVertex
10
80.000
20
22.000
42
0
70
0
0
VERTEX
5
3E
330
36
100
AcDbEntity
67
0
8
0
6
BYLAYER
62
256
48
1
60
0
100
AcDbVertex
100
AcDb2dVertex
10
82.000
20
22.000
42
0
70
0
0
VERTEX
5
3F
330
36
100
AcDbEntity
67
0
8
0
6
BYLAYER
62
256
48
1
60
0
100
AcDbVertex
100
AcDb2dVertex
10
82.000
20
40.000
42
0
70
0
0
VERTEX
5
40
330
36
100
AcDbEntity
67
0
8
0
6
BYLAYER
62
256
48
1
60
0
100
AcDbVertex
100
AcDb2dVertex
10
77.000
20
40.000
42
0
70
0
0
VERTEX
5
41
330
36
100
AcDbEntity
67
0
8
0
6
BYLAYER
62
256
48
1
60
0
100
AcDbVertex
100
AcDb2dVertex
10
77.000
20
41.000
42
0
70
0
0
VERTEX
5
42
330
36
100
AcDbEntity
67
0
8
0
6
BYLAYER
62
256
48
1
60
0
100
AcDbVertex
100
AcDb2dVertex
10
78.000
20
41.000
42
0
70
0
0
VERTEX
5
43
330
36
100
AcDbEntity
67
0
8
0
6
BYLAYER
62
256
48
1
60
0
100
AcDbVertex
100
AcDb2dVertex
10
78.000
20
43.000
42
0
70
0
0
VERTEX
5
44
330
36
100
AcDbEntity
67
0
8
0
6
BYLAYER
62
256
48
1
60
0
100
AcDbVertex
100
AcDb2dVertex
10
77.000
20
43.000
42
0
70
0
0
VERTEX
5
45
330
36
100
AcDbEntity
67
0
8
0
6
BYLAYER
62
256
48
1
60
0
100
AcDbVertex
100
AcDb2dVertex
10
77.000
20
22.000
42
0
70
0
0
VERTEX
5
46
330
36
100
AcDbEntity
67
0
8
0
6
BYLAYER
62
256
48
1
60
0
100
AcDbVertex
100
AcDb2dVertex
10
77.000
20
22.000
42
0
70
0
0
VERTEX
5
47
330
36
100
AcDbEntity
67
0
8
0
6
BYLAYER
62
256
48
1
60
0
100
AcDbVertex
100
AcDb2dVertex
10
77.000
20
40.000
42
0
70
0
0
VERTEX
5
48
330
36
100
AcDbEntity
67
0
8
0
6
BYLAYER
62
256
48
1
60
0
100
AcDbVertex
100
AcDb2dVertex
10
77.000
20
22.000
42
0
70
0
0
VERTEX
5
49
330
36
100
AcDbEntity
67
0
8
0
6
BYLAYER
62
256
48
1
60
0
100
AcDbVertex
100
AcDb2dVertex
10
59.000
20
22.000
42
0
70
0
0
VERTEX
5
4A
330
36
100
AcDbEntity
67
0
8
0
6
BYLAYER
62
256
48
1
60
0
100
AcDbVertex
100
AcDb2dVertex
10
59.000
20
24.000
42
0
70
0
0
VERTEX
5
4B
330
36
100
AcDbEntity
67
0
8
0
6
BYLAYER
62
256
48
1
60
0
100
AcDbVertex
100
AcDb2dVertex
10
58.000
20
24.000
42
0
70
0
0
VERTEX
5
4C
330
36
100
AcDbEntity
67
0
8
0
6
BYLAYER
62
256
48
1
60
0
100
AcDbVertex
100
AcDb2dVertex
10
41.000
20
24.000
42
0
70
0
0
VERTEX
5
4D
330
36
100
AcDbEntity
67
0
8
0
6
BYLAYER
62
256
48
1
60
0
100
AcDbVertex
100
AcDb2dVertex
10
41.000
20
18.000
42
0
70
0
0
SEQEND
5
C1
330
36
100
AcDbEntity
67
0
8
0
6
BYLAYER
62
256
48
1
60
0
0
POLYLINE
5
4E
330
0
100
AcDbEntity
67
0
8
0
6
BYLAYER
62
256
48
1
60
0
100
AcDb2dPolyline
10
0.000
20
0.000
30
0.000
70
0
0
VERTEX
5
4F
330
4E
100
AcDbEntity
67
0
8
0
6
BYLAYER
62
256
48
1
60
0
100
AcDbVertex
100
AcDb2dVertex
10
100.000
20
0.000
42
0
70
0
0
VERTEX
5
50
330
4E
100
AcDbEntity
67
0
8
0
6
BYLAYER
62
256
48
1
60
0
100
AcDbVertex
100
AcDb2dVertex
10
103.000
20
0.000
42
0
70
0
0
VERTEX
5
51
330
4E
100
AcDbEntity
67
0
8
0
6
BYLAYER
62
256
48
1
60
0
100
AcDbVertex
100
AcDb2dVertex
10
103.000
20
18.000
42
0
70
0
0
VERTEX
5
52
330
4E
100
AcDbEntity
67
0
8
0
6
BYLAYER
62
256
48
1
60
0
100
AcDbVertex
100
AcDb2dVertex
10
121.000
20
18.000
42
0
70
0
0
VERTEX
5
53
330
4E
100
AcDbEntity
67
0
8
0
6
BYLAYER
62
256
48
1
60
0
100
AcDbVertex
100
AcDb2dVertex
10
121.000
20
24.000
42
0
70
0
0
VERTEX
5
54
330
4E
100
AcDbEntity
67
0
8
0
6
BYLAYER
62
256
48
1
60
0
100
AcDbVertex
100
AcDb2dVertex
10
103.000
20
24.000
42
0
70
0
0
VERTEX
5
55
330
4E
100
AcDbEntity
67
0
8
0
6
BYLAYER
62
256
48
1
60
0
100
AcDbVertex
100
AcDb2dVertex
10
104.000
20
24.000
42
0
70
0
0
VERTEX
5
56
330
4E
100
AcDbEntity
67
0
8
0
6
BYLAYER
62
256
48
1
60
0
100
AcDbVertex
100
AcDb2dVertex
10
103.000
20
24.000
42
0
70
0
0
VERTEX
5
57
330
4E
100
AcDbEntity
67
0
8
0
6
BYLAYER
62
256
48
1
60
0
100
AcDbVertex
100
AcDb2dVertex
10
103.000
20
22.000
42
0
70
0
0
VERTEX
5
58
330
4E
100
AcDbEntity
67
0
8
0
6
BYLAYER
62
256
48
1
60
0
100
AcDbVertex
100
AcDb2dVertex
10
104.000
20
22.000
42
0
70
0
0
VERTEX
5
59
330
4E
100
AcDbEntity
67
0
8
0
6
BYLAYER
62
256
48
1
60
0
100
AcDbVertex
100
AcDb2dVertex
10
104.000
20
21.000
42
0
70
0
0
VERTEX
5
5A
330
4E
100
AcDbEntity
67
0
8
0
6
BYLAYER
62
256
48
1
60
0
100
AcDbVertex
100
AcDb2dVertex
10
106.000
20
21.000
42
0
70
0
0
VERTEX
5
5B
330
4E
100
AcDbEntity
67
0
8
0
6
BYLAYER
62
256
48
1
60
0
100
AcDbVertex
100
AcDb2dVertex
10
106.000
20
22.000
42
0
70
0
0
VERTEX
5
5C
330
4E
100
AcDbEntity
67
0
8
0
6
BYLAYER
62
256
48
1
60
0
100
AcDbVertex
100
AcDb2dVertex
10
85.000
20
22.000
42
0
70
0
0
VERTEX
5
5D
330
4E
100
AcDbEntity
67
0
8
0
6
BYLAYER
62
256
48
1
60
0
100
AcDbVertex
100
AcDb2dVertex
10
85.000
20
40.000
42
0
70
0
0
VERTEX
5
5E
330
4E
100
AcDbEntity
67
0
8
0
6
BYLAYER
62
256
48
1
60
0
100
AcDbVertex
100
AcDb2dVertex
10
85.000
20
22.000
42
0
70
0
0
VERTEX
5
5F
330
4E
100
AcDbEntity
67
0
8
0
6
BYLAYER
62
256
48
1
60
0
100
AcDbVertex
100
AcDb2dVertex
10
103.000
20
22.000
42
0
70
0
0
VERTEX
5
60
330
4E
100
AcDbEntity
67
0
8
0
6
BYLAYER
62
256
48
1
60
0
100
AcDbVertex
100
AcDb2dVertex
10
85.000
20
22.000
42
0
70
0
0
VERTEX
5
61
330
4E
100
AcDbEntity
67
0
8
0
6
BYLAYER
62
256
48
1
60
0
100
AcDbVertex
100
AcDb2dVertex
10
85.000
20
40.000
42
0
70
0
0
VERTEX
5
62
330
4E
100
AcDbEntity
67
0
8
0
6
BYLAYER
62
256
48
1
60
0
100
AcDbVertex
100
AcDb2dVertex
10
100.000
20
40.000
42
0
70
0
0
VERTEX
5
63
330
4E
100
AcDbEntity
67
0
8
0
6
BYLAYER
62
256
48
1
60
0
100
AcDbVertex
100
AcDb2dVertex
10
100.000
20
22.000
42
0
70
0
0
VERTEX
5
64
330
4E
100
AcDbEntity
67
0
8
0
6
BYLAYER
62
256
48
1
60
0
100
AcDbVertex
100
AcDb2dVertex
10
82.000
20
22.000
42
0
70
0
0
VERTEX
5
65
330
4E
100
AcDbEntity
67
0
8
0
6
BYLAYER
62
256
48
1
60
0
100
AcDbVertex
100
AcDb2dVertex
10
82.000
20
18.000
42
0
70
0
0
VERTEX
5
66
330
4E
100
AcDbEntity
67
0
8
0
6
BYLAYER
62
256
48
1
60
0
100
AcDbVertex
100
AcDb2dVertex
10
100.000
20
18.000
42
0
70
0
0
VERTEX
5
67
330
4E
100
AcDbEntity
67
0
8
0
6
BYLAYER
62
256
48
1
60
0
100
AcDbVertex
100
AcDb2dVertex
10
100.000
20
0.000
42
0
70
0
0
SEQEND
5
C2
330
4E
100
AcDbEntity
67
0
8
0
6
BYLAYER
62
256
48
1
60
0
0
POLYLINE
5
68
330
0
100
AcDbEntity
67
0
8
0
6
BYLAYER
62
256
48
1
60
0
100
AcDb2dPolyline
10
0.000
20
0.000
30
0.000
70
0
0
VERTEX
5
69
330
68
100
AcDbEntity
67
0
8
0
6
BYLAYER
62
256
48
1
60
0
100
AcDbVertex
100
AcDb2dVertex
10
139.000
20
0.000
42
0
70
0
0
VERTEX
5
6A
330
68
100
AcDbEntity
67
0
8
0
6
BYLAYER
62
256
48
1
60
0
100
AcDbVertex
100
AcDb2dVertex
10
142.000
20
0.000
42
0
70
0
0
VERTEX
5
6B
330
68
100
AcDbEntity
67
0
8
0
6
BYLAYER
62
256
48
1
60
0
100
AcDbVertex
100
AcDb2dVertex
10
142.000
20
18.000
42
0
70
0
0
VERTEX
5
6C
330
68
100
AcDbEntity
67
0
8
0
6
BYLAYER
62
256
48
1
60
0
100
AcDbVertex
100
AcDb2dVertex
10
160.000
20
18.000
42
0
70
0
0
VERTEX
5
6D
330
68
100
AcDbEntity
67
0
8
0
6
BYLAYER
62
256
48
1
60
0
100
AcDbVertex
100
AcDb2dVertex
10
160.000
20
24.000
42
0
70
0
0
VERTEX
5
6E
330
68
100
AcDbEntity
67
0
8
0
6
BYLAYER
62
256
48
1
60
0
100
AcDbVertex
100
AcDb2dVertex
10
142.000
20
24.000
42
0
70
0
0
VERTEX
5
6F
330
68
100
AcDbEntity
67
0
8
0
6
BYLAYER
62
256
48
1
60
0
100
AcDbVertex
100
AcDb2dVertex
10
143.000
20
24.000
42
0
70
0
0
VERTEX
5
70
330
68
100
AcDbEntity
67
0
8
0
6
BYLAYER
62
256
48
1
60
0
100
AcDbVertex
100
AcDb2dVertex
10
142.000
20
24.000
42
0
70
0
0
VERTEX
5
71
330
68
100
AcDbEntity
67
0
8
0
6
BYLAYER
62
256
48
1
60
0
100
AcDbVertex
100
AcDb2dVertex
10
142.000
20
22.000
42
0
70
0
0
VERTEX
5
72
330
68
100
AcDbEntity
67
0
8
0
6
BYLAYER
62
256
48
1
60
0
100
AcDbVertex
100
AcDb2dVertex
10
143.000
20
22.000
42
0
70
0
0
VERTEX
5
73
330
68
100
AcDbEntity
67
0
8
0
6
BYLAYER
62
256
48
1
60
0
100
AcDbVertex
100
AcDb2dVertex
10
143.000
20
21.000
42
0
70
0
0
VERTEX
5
74
330
68
100
AcDbEntity
67
0
8
0
6
BYLAYER
62
256
48
1
60
0
100
AcDbVertex
100
AcDb2dVertex
10
145.000
20
21.000
42
0
70
0
0
VERTEX
5
75
330
68
100
AcDbEntity
67
0
8
0
6
BYLAYER
62
256
48
1
60
0
100
AcDbVertex
100
AcDb2dVertex
10
145.000
20
22.000
42
0
70
0
0
VERTEX
5
76
330
68
100
AcDbEntity
67
0
8
0
6
BYLAYER
62
256
48
1
60
0
100
AcDbVertex
100
AcDb2dVertex
10
124.000
20
22.000
42
0
70
0
0
VERTEX
5
77
330
68
100
AcDbEntity
67
0
8
0
6
BYLAYER
62
256
48
1
60
0
100
AcDbVertex
100
AcDb2dVertex
10
124.000
20
40.000
42
0
70
0
0
VERTEX
5
78
330
68
100
AcDbEntity
67
0
8
0
6
BYLAYER
62
256
48
1
60
0
100
AcDbVertex
100
AcDb2dVertex
10
124.000
20
22.000
42
0
70
0
0
VERTEX
5
79
330
68
100
AcDbEntity
67
0
8
0
6
BYLAYER
62
256
48
1
60
0
100
AcDbVertex
100
AcDb2dVertex
10
142.000
20
22.000
42
0
70
0
0
VERTEX
5
7A
330
68
100
AcDbEntity
67
0
8
0
6
BYLAYER
62
256
48
1
60
0
100
AcDbVertex
100
AcDb2dVertex
10
124.000
20
22.000
42
0
70
0
0
VERTEX
5
7B
330
68
100
AcDbEntity
67
0
8
0
6
BYLAYER
62
256
48
1
60
0
100
AcDbVertex
100
AcDb2dVertex
10
124.000
20
40.000
42
0
70
0
0
VERTEX
5
7C
330
68
100
AcDbEntity
67
0
8
0
6
BYLAYER
62
256
48
1
60
0
100
AcDbVertex
100
AcDb2dVertex
10
139.000
20
40.000
42
0
70
0
0
VERTEX
5
7D
330
68
100
AcDbEntity
67
0
8
0
6
BYLAYER
62
256
48
1
60
0
100
AcDbVertex
100
AcDb2dVertex
10
139.000
20
22.000
42
0
70
0
0
VERTEX
5
7E
330
68
100
AcDbEntity
67
0
8
0
6
BYLAYER
62
256
48
1
60
0
100
AcDbVertex
100
AcDb2dVertex
10
121.000
20
22.000
42
0
70
0
0
VERTEX
5
7F
330
68
100
AcDbEntity
67
0
8
0
6
BYLAYER
62
256
48
1
60
0
100
AcDbVertex
100
AcDb2dVertex
10
121.000
20
18.000
42
0
70
0
0
VERTEX
5
80
330
68
100
AcDbEntity
67
0
8
0
6
BYLAYER
62
256
48
1
60
0
100
AcDbVertex
100
AcDb2dVertex
10
139.000
20
18.000
42
0
70
0
0
VERTEX
5
81
330
68
100
AcDbEntity
67
0
8
0
6
BYLAYER
62
256
48
1
60
0
100
AcDbVertex
100
AcDb2dVertex
10
139.000
20
0.000
42
0
70
0
0
SEQEND
5
C3
330
68
100
AcDbEntity
67
0
8
0
6
BYLAYER
62
256
48
1
60
0
0
POLYLINE
5
82
330
0
100
AcDbEntity
67
0
8
0
6
BYLAYER
62
256
48
1
60
0
100
AcDb2dPolyline
10
0.000
20
0.000
30
0.000
70
0
0
VERTEX
5
83
330
82
100
AcDbEntity
67
0
8
0
6
BYLAYER
62
256
48
1
60
0
100
AcDbVertex
100
AcDb2dVertex
10
175.000
20
0.000
42
0
70
0
0
VERTEX
5
84
330
82
100
AcDbEntity
67
0
8
0
6
BYLAYER
62
256
48
1
60
0
100
AcDbVertex
100
AcDb2dVertex
10
178.000
20
0.000
42
0
70
0
0
VERTEX
5
85
330
82
100
AcDbEntity
67
0
8
0
6
BYLAYER
62
256
48
1
60
0
100
AcDbVertex
100
AcDb2dVertex
10
178.000
20
15.000
42
0
70
0
0
VERTEX
5
86
330
82
100
AcDbEntity
67
0
8
0
6
BYLAYER
62
256
48
1
60
0
100
AcDbVertex
100
AcDb2dVertex
10
193.000
20
15.000
42
0
70
0
0
VERTEX
5
87
330
82
100
AcDbEntity
67
0
8
0
6
BYLAYER
62
256
48
1
60
0
100
AcDbVertex
100
AcDb2dVertex
10
193.000
20
20.000
42
0
70
0
0
VERTEX
5
88
330
82
100
AcDbEntity
67
0
8
0
6
BYLAYER
62
256
48
1
60
0
100
AcDbVertex
100
AcDb2dVertex
10
178.000
20
20.000
42
0
70
0
0
VERTEX
5
89
330
82
100
AcDbEntity
67
0
8
0
6
BYLAYER
62
256
48
1
60
0
100
AcDbVertex
100
AcDb2dVertex
10
178.000
20
35.000
42
0
70
0
0
VERTEX
5
8A
330
82
100
AcDbEntity
67
0
8
0
6
BYLAYER
62
256
48
1
60
0
100
AcDbVertex
100
AcDb2dVertex
10
175.000
20
35.000
42
0
70
0
0
VERTEX
5
8B
330
82
100
AcDbEntity
67
0
8
0
6
BYLAYER
62
256
48
1
60
0
100
AcDbVertex
100
AcDb2dVertex
10
175.000
20
20.000
42
0
70
0
0
VERTEX
5
8C
330
82
100
AcDbEntity
67
0
8
0
6
BYLAYER
62
256
48
1
60
0
100
AcDbVertex
100
AcDb2dVertex
10
160.000
20
20.000
42
0
70
0
0
VERTEX
5
8D
330
82
100
AcDbEntity
67
0
8
0
6
BYLAYER
62
256
48
1
60
0
100
AcDbVertex
100
AcDb2dVertex
10
160.000
20
15.000
42
0
70
0
0
VERTEX
5
8E
330
82
100
AcDbEntity
67
0
8
0
6
BYLAYER
62
256
48
1
60
0
100
AcDbVertex
100
AcDb2dVertex
10
175.000
20
15.000
42
0
70
0
0
VERTEX
5
8F
330
82
100
AcDbEntity
67
0
8
0
6
BYLAYER
62
256
48
1
60
0
100
AcDbVertex
100
AcDb2dVertex
10
175.000
20
0.000
42
0
70
0
0
SEQEND
5
C4
330
82
100
AcDbEntity
67
0
8
0
6
BYLAYER
62
256
48
1
60
0
0
POLYLINE
5
90
330
0
100
AcDbEntity
67
0
8
0
6
BYLAYER
62
256
48
1
60
0
100
AcDb2dPolyline
10
0.000
20
0.000
30
0.000
70
0
0
VERTEX
5
91
330
90
100
AcDbEntity
67
0
8
0
6
BYLAYER
62
256
48
1
60
0
100
AcDbVertex
100
AcDb2dVertex
10
208.000
20
0.000
42
0
70
0
0
VERTEX
5
92
330
90
100
AcDbEntity
67
0
8
0
6
BYLAYER
62
256
48
1
60
0
100
AcDbVertex
100
AcDb2dVertex
10
211.000
20
0.000
42
0
70
0
0
VERTEX
5
93
330
90
100
AcDbEntity
67
0
8
0
6
BYLAYER
62
256
48
1
60
0
100
AcDbVertex
100
AcDb2dVertex
10
211.000
20
15.000
42
0
70
0
0
VERTEX
5
94
330
90
100
AcDbEntity
67
0
8
0
6
BYLAYER
62
256
48
1
60
0
100
AcDbVertex
100
AcDb2dVertex
10
226.000
20
15.000
42
0
70
0
0
VERTEX
5
95
330
90
100
AcDbEntity
67
0
8
0
6
BYLAYER
62
256
48
1
60
0
100
AcDbVertex
100
AcDb2dVertex
10
226.000
20
20.000
42
0
70
0
0
VERTEX
5
96
330
90
100
AcDbEntity
67
0
8
0
6
BYLAYER
62
256
48
1
60
0
100
AcDbVertex
100
AcDb2dVertex
10
211.000
20
20.000
42
0
70
0
0
VERTEX
5
97
330
90
100
AcDbEntity
67
0
8
0
6
BYLAYER
62
256
48
1
60
0
100
AcDbVertex
100
AcDb2dVertex
10
211.000
20
35.000
42
0
70
0
0
VERTEX
5
98
330
90
100
AcDbEntity
67
0
8
0
6
BYLAYER
62
256
48
1
60
0
100
AcDbVertex
100
AcDb2dVertex
10
208.000
20
35.000
42
0
70
0
0
VERTEX
5
99
330
90
100
AcDbEntity
67
0
8
0
6
BYLAYER
62
256
48
1
60
0
100
AcDbVertex
100
AcDb2dVertex
10
208.000
20
20.000
42
0
70
0
0
VERTEX
5
9A
330
90
100
AcDbEntity
67
0
8
0
6
BYLAYER
62
256
48
1
60
0
100
AcDbVertex
100
AcDb2dVertex
10
193.000
20
20.000
42
0
70
0
0
VERTEX
5
9B
330
90
100
AcDbEntity
67
0
8
0
6
BYLAYER
62
256
48
1
60
0
100
AcDbVertex
100
AcDb2dVertex
10
193.000
20
15.000
42
0
70
0
0
VERTEX
5
9C
330
90
100
AcDbEntity
67
0
8
0
6
BYLAYER
62
256
48
1
60
0
100
AcDbVertex
100
AcDb2dVertex
10
208.000
20
15.000
42
0
70
0
0
VERTEX
5
9D
330
90
100
AcDbEntity
67
0
8
0
6
BYLAYER
62
256
48
1
60
0
100
AcDbVertex
100
AcDb2dVertex
10
208.000
20
0.000
42
0
70
0
0
SEQEND
5
C5
330
90
100
AcDbEntity
67
0
8
0
6
BYLAYER
62
256
48
1
60
0
0
POLYLINE
5
9E
330
0
100
AcDbEntity
67
0
8
0
6
BYLAYER
62
256
48
1
60
0
100
AcDb2dPolyline
10
0.000
20
0.000
30
0.000
70
0
0
VERTEX
5
9F
330
9E
100
AcDbEntity
67
0
8
0
6
BYLAYER
62
256
48
1
60
0
100
AcDbVertex
100
AcDb2dVertex
10
241.000
20
0.000
42
0
70
0
0
VERTEX
5
A0
330
9E
100
AcDbEntity
67
0
8
0
6
BYLAYER
62
256
48
1
60
0
100
AcDbVertex
100
AcDb2dVertex
10
244.000
20
0.000
42
0
70
0
0
VERTEX
5
A1
330
9E
100
AcDbEntity
67
0
8
0
6
BYLAYER
62
256
48
1
60
0
100
AcDbVertex
100
AcDb2dVertex
10
244.000
20
15.000
42
0
70
0
0
VERTEX
5
A2
330
9E
100
AcDbEntity
67
0
8
0
6
BYLAYER
62
256
48
1
60
0
100
AcDbVertex
100
AcDb2dVertex
10
259.000
20
15.000
42
0
70
0
0
VERTEX
5
A3
330
9E
100
AcDbEntity
67
0
8
0
6
BYLAYER
62
256
48
1
60
0
100
AcDbVertex
100
AcDb2dVertex
10
259.000
20
20.000
42
0
70
0
0
VERTEX
5
A4
330
9E
100
AcDbEntity
67
0
8
0
6
BYLAYER
62
256
48
1
60
0
100
AcDbVertex
100
AcDb2dVertex
10
244.000
20
20.000
42
0
70
0
0
VERTEX
5
A5
330
9E
100
AcDbEntity
67
0
8
0
6
BYLAYER
62
256
48
1
60
0
100
AcDbVertex
100
AcDb2dVertex
10
244.000
20
35.000
42
0
70
0
0
VERTEX
5
A6
330
9E
100
AcDbEntity
67
0
8
0
6
BYLAYER
62
256
48
1
60
0
100
AcDbVertex
100
AcDb2dVertex
10
241.000
20
35.000
42
0
70
0
0
VERTEX
5
A7
330
9E
100
AcDbEntity
67
0
8
0
6
BYLAYER
62
256
48
1
60
0
100
AcDbVertex
100
AcDb2dVertex
10
241.000
20
20.000
42
0
70
0
0
VERTEX
5
A8
330
9E
100
AcDbEntity
67
0
8
0
6
BYLAYER
62
256
48
1
60
0
100
AcDbVertex
100
AcDb2dVertex
10
226.000
20
20.000
42
0
70
0
0
VERTEX
5
A9
330
9E
100
AcDbEntity
67
0
8
0
6
BYLAYER
62
256
48
1
60
0
100
AcDbVertex
100
AcDb2dVertex
10
226.000
20
15.000
42
0
70
0
0
VERTEX
5
AA
330
9E
100
AcDbEntity
67
0
8
0
6
BYLAYER
62
256
48
1
60
0
100
AcDbVertex
100
AcDb2dVertex
10
241.000
20
15.000
42
0
70
0
0
VERTEX
5
AB
330
9E
100
AcDbEntity
67
0
8
0
6
BYLAYER
62
256
48
1
60
0
100
AcDbVertex
100
AcDb2dVertex
10
241.000
20
0.000
42
0
70
0
0
SEQEND
5
C6
330
9E
100
AcDbEntity
67
0
8
0
6
BYLAYER
62
256
48
1
60
0
0
POLYLINE
5
AC
330
0
100
AcDbEntity
67
0
8
0
6
BYLAYER
62
256
48
1
60
0
100
AcDb2dPolyline
10
0.000
20
0.000
30
0.000
70
0
0
VERTEX
5
AD
330
AC
100
AcDbEntity
67
0
8
0
6
BYLAYER
62
256
48
1
60
0
100
AcDbVertex
100
AcDb2dVertex
10
274.000
20
0.000
42
0
70
0
0
VERTEX
5
AE
330
AC
100
AcDbEntity
67
0
8
0
6
BYLAYER
62
256
48
1
60
0
100
AcDbVertex
100
AcDb2dVertex
10
277.000
20
0.000
42
0
70
0
0
VERTEX
5
AF
330
AC
100
AcDbEntity
67
0
8
0
6
BYLAYER
62
256
48
1
60
0
100
AcDbVertex
100
AcDb2dVertex
10
277.000
20
15.000
42
0
70
0
0
VERTEX
5
B0
330
AC
100
AcDbEntity
67
0
8
0
6
BYLAYER
62
256
48
1
60
0
100
AcDbVertex
100
AcDb2dVertex
10
292.000
20
15.000
42
0
70
0
0
VERTEX
5
B1
330
AC
100
AcDbEntity
67
0
8
0
6
BYLAYER
62
256
48
1
60
0
100
AcDbVertex
100
AcDb2dVertex
10
292.000
20
20.000
42
0
70
0
0
VERTEX
5
B2
330
AC
100
AcDbEntity
67
0
8
0
6
BYLAYER
62
256
48
1
60
0
100
AcDbVertex
100
AcDb2dVertex
10
277.000
20
20.000
42
0
70
0
0
VERTEX
5
B3
330
AC
100
AcDbEntity
67
0
8
0
6
BYLAYER
62
256
48
1
60
0
100
AcDbVertex
100
AcDb2dVertex
10
277.000
20
35.000
42
0
70
0
0
VERTEX
5
B4
330
AC
100
AcDbEntity
67
0
8
0
6
BYLAYER
62
256
48
1
60
0
100
AcDbVertex
100
AcDb2dVertex
10
274.000
20
35.000
42
0
70
0
0
VERTEX
5
B5
330
AC
100
AcDbEntity
67
0
8
0
6
BYLAYER
62
256
48
1
60
0
100
AcDbVertex
100
AcDb2dVertex
10
274.000
20
20.000
42
0
70
0
0
VERTEX
5
B6
330
AC
100
AcDbEntity
67
0
8
0
6
BYLAYER
62
256
48
1
60
0
100
AcDbVertex
100
AcDb2dVertex
10
259.000
20
20.000
42
0
70
0
0
VERTEX
5
B7
330
AC
100
AcDbEntity
67
0
8
0
6
BYLAYER
62
256
48
1
60
0
100
AcDbVertex
100
AcDb2dVertex
10
259.000
20
15.000
42
0
70
0
0
VERTEX
5
B8
330
AC
100
AcDbEntity
67
0
8
0
6
BYLAYER
62
256
48
1
60
0
100
AcDbVertex
100
AcDb2dVertex
10
274.000
20
15.000
42
0
70
0
0
VERTEX
5
B9
330
AC
100
AcDbEntity
67
0
8
0
6
BYLAYER
62
256
48
1
60
0
100
AcDbVertex
100
AcDb2dVertex
10
274.000
20
0.000
42
0
70
0
0
SEQEND
5
C7
330
AC
100
AcDbEntity
67
0
8
0
6
BYLAYER
62
256
48
1
60
0
0
POLYLINE
5
BA
330
0
100
AcDbEntity
67
0
8
0
6
BYLAYER
62
256
48
1
60
0
100
AcDb2dPolyline
10
0.000
20
0.000
30
0.000
70
0
0
VERTEX
5
BB
330
BA
100
AcDbEntity
67
0
8
0
6
BYLAYER
62
256
48
1
60
0
100
AcDbVertex
100
AcDb2dVertex
10
292.000
20
0.000
42
0
70
0
0
VERTEX
5
BC
330
BA
100
AcDbEntity
67
0
8
0
6
BYLAYER
62
256
48
1
60
0
100
AcDbVertex
100
AcDb2dVertex
10
295.000
20
0.000
42
0
70
0
0
VERTEX
5
BD
330
BA
100
AcDbEntity
67
0
8
0
6
BYLAYER
62
256
48
1
60
0
100
AcDbVertex
100
AcDb2dVertex
10
295.000
20
5.000
42
0
70
0
0
VERTEX
5
BE
330
BA
100
AcDbEntity
67
0
8
0
6
BYLAYER
62
256
48
1
60
0
100
AcDbVertex
100
AcDb2dVertex
10
292.000
20
5.000
42
0
70
0
0
VERTEX
5
BF
330
BA
100
AcDbEntity
67
0
8
0
6
BYLAYER
62
256
48
1
60
0
100
AcDbVertex
100
AcDb2dVertex
10
292.000
20
0.000
42
0
70
0
0
SEQEND
5
C8
330
BA
100
AcDbEntity
67
0
8
0
6
BYLAYER
62
256
48
1
60
0
0
ENDSEC
0
SECTION
2
OBJECTS
0
DICTIONARY
5
1D
330
0
100
AcDbDictionary
3
ACAD_GROUP
350
1C
1001
ACAD
1000
TREAT_AS_HARD
1070
0
0
DICTIONARY
5
1C
330
0
100
AcDbDictionary
1001
ACAD
1000
TREAT_AS_HARD
1070
0
0
ENDSEC
0
SECTION
2
THUMBNAILIMAGE
0
ENDSEC
0
EOF